<?xml version="1.0" encoding="utf-8"?>
<!-- Generator: Adobe Illustrator 23.0.3, SVG Export Plug-In . SVG Version: 6.00 Build 0)  -->
<svg version="1.1" id="Layer_1" xmlns="http://www.w3.org/2000/svg" xmlns:xlink="http://www.w3.org/1999/xlink" x="0px" y="0px"
	 viewBox="0 0 1280 1280" style="enable-background:new 0 0 1280 1280;" xml:space="preserve">
<style type="text/css">
	.st0{clip-path:url(#SVGID_2_);}
	.st1{clip-path:url(#SVGID_4_);fill:#095B22;}
	.st2{opacity:0.7;clip-path:url(#SVGID_4_);}
	.st3{clip-path:url(#SVGID_6_);}
	.st4{filter:url(#Adobe_OpacityMaskFilter);}
	.st5{clip-path:url(#SVGID_8_);fill:url(#SVGID_10_);}
	.st6{clip-path:url(#SVGID_8_);mask:url(#SVGID_9_);fill:url(#SVGID_11_);}
	.st7{clip-path:url(#SVGID_13_);}
	.st8{filter:url(#Adobe_OpacityMaskFilter_1_);}
	.st9{clip-path:url(#SVGID_15_);fill:url(#SVGID_17_);}
	.st10{clip-path:url(#SVGID_15_);mask:url(#SVGID_16_);fill:url(#SVGID_18_);}
	.st11{clip-path:url(#SVGID_20_);}
	.st12{filter:url(#Adobe_OpacityMaskFilter_2_);}
	.st13{clip-path:url(#SVGID_22_);fill:url(#SVGID_24_);}
	.st14{clip-path:url(#SVGID_22_);mask:url(#SVGID_23_);fill:url(#SVGID_25_);}
	.st15{clip-path:url(#SVGID_27_);}
	.st16{filter:url(#Adobe_OpacityMaskFilter_3_);}
	.st17{clip-path:url(#SVGID_29_);fill:url(#SVGID_31_);}
	.st18{clip-path:url(#SVGID_29_);mask:url(#SVGID_30_);fill:url(#SVGID_32_);}
</style>
<g>
	<defs>
		<rect id="SVGID_1_" width="1280" height="1280"/>
	</defs>
	<clipPath id="SVGID_2_">
		<use xlink:href="#SVGID_1_"  style="overflow:visible;"/>
	</clipPath>
	<g class="st0">
		<defs>
			<rect id="SVGID_3_" width="1280" height="1280"/>
		</defs>
		<clipPath id="SVGID_4_">
			<use xlink:href="#SVGID_3_"  style="overflow:visible;"/>
		</clipPath>
		<path class="st1" d="M631.97,68.24c-34.29,1.27-68.45,5.76-101.93,13.27c-33.48,7.51-66.28,18.03-97.84,31.51
			c-63.12,26.95-121.24,65.47-170.74,113.01c-49.47,47.56-90.28,104.11-119.73,166.1c-14.72,30.99-26.54,63.35-35.39,96.5
			c-8.84,33.15-14.69,67.11-17.33,101.32c-1.48,18.68-2.5,33.87-3.61,33.86c-0.98-0.01-1.66-15.33-0.17-34.16
			c2.66-34.44,8.55-68.62,17.45-102c8.9-33.37,20.81-65.95,35.63-97.15c29.65-62.41,70.73-119.32,120.53-167.2
			c49.83-47.85,108.34-86.63,171.88-113.76c31.77-13.56,64.8-24.16,98.5-31.72c33.7-7.56,68.09-12.08,102.61-13.36
			c18.87-0.74,34.16,0.55,34.12,1.53C665.91,67.1,650.69,67.5,631.97,68.24"/>
		<path class="st1" d="M853.31,1157.64c30.47-12.78,59.72-28.41,87.34-46.53c27.61-18.12,53.61-38.73,77.47-61.57
			c47.73-45.69,87.04-100.11,115.52-159.73c28.44-59.64,46.04-124.42,51.55-190.27c2.75-32.92,2.43-66.09-0.84-98.96
			c-3.28-32.87-9.52-65.45-18.75-97.17c-5-17.34-9.21-31.38-8.16-31.76c0.92-0.34,6.77,13.23,11.81,30.7
			c9.29,31.94,15.58,64.75,18.88,97.84c3.3,33.1,3.62,66.5,0.85,99.65c-5.55,66.3-23.27,131.54-51.91,191.58
			c-28.68,60.03-68.26,114.83-116.32,160.84c-24.03,23-50.21,43.75-78.01,62c-27.81,18.24-57.27,33.99-87.95,46.85
			c-16.76,7.07-30.98,11.06-31.3,10.13C823.12,1170.22,836.69,1164.66,853.31,1157.64"/>
		<path class="st1" d="M327.67,799.6h217.11c10.8,0,18.91,0.35,24.32,1.06c5.4,0.71,11.63,2.94,18.68,6.7
			c7.05,3.77,11.98,10.11,14.81,19.04c2.82,8.93,4.22,20.91,4.22,35.95c0,12.22-1.18,22.32-3.52,30.31
			c-2.35,7.99-5.17,14.1-8.46,18.33c-3.29,4.22-8.1,7.39-14.45,9.52c-6.35,2.11-11.76,3.29-16.21,3.52
			c-4.47,0.24-11.17,0.35-20.09,0.35H264.93c-12.23,0-22.32-1.17-30.31-3.52c-8-2.35-14.1-5.17-18.33-8.46
			c-4.23-3.28-7.4-8.1-9.51-14.45c-2.12-6.34-3.29-11.73-3.52-16.21c-0.24-4.46-0.35-11.16-0.35-20.09V469.72
			c0-23.96,4.46-40.29,13.39-48.99c8.92-8.7,25.84-13.04,50.75-13.04h277.73c10.8,0,18.91,0.35,24.32,1.05
			c5.4,0.71,11.63,2.95,18.68,6.71c7.05,3.76,11.98,10.11,14.81,19.03c2.82,8.93,4.22,20.91,4.22,35.95
			c0,12.22-1.18,22.32-3.52,30.31c-2.35,8-5.17,14.1-8.46,18.33c-3.29,4.23-8.1,7.4-14.45,9.51c-6.35,2.12-11.76,3.29-16.21,3.52
			c-4.47,0.24-11.17,0.35-20.09,0.35h-216.4v71.2h139.57c10.81,0,18.92,0.35,24.32,1.05c5.4,0.71,11.64,2.94,18.68,6.7
			c7.05,3.77,11.98,10.11,14.8,19.04c2.82,8.93,4.23,20.91,4.23,35.95c0,12.22-1.18,22.32-3.52,30.31c-2.36,8-5.18,14.1-8.46,18.33
			c-3.29,4.23-8.23,7.4-14.81,9.51c-6.59,2.11-12.11,3.29-16.56,3.52c-4.48,0.24-11.17,0.35-20.09,0.35H327.67V799.6z"/>
		<g class="st2">
			<g>
				<defs>
					<rect id="SVGID_5_" x="202.91" y="532.41" width="124.76" height="71.35"/>
				</defs>
				<clipPath id="SVGID_6_">
					<use xlink:href="#SVGID_5_"  style="overflow:visible;"/>
				</clipPath>
				<g class="st3">
					<defs>
						<rect id="SVGID_7_" x="202.91" y="532.41" width="124.76" height="71.35"/>
					</defs>
					<clipPath id="SVGID_8_">
						<use xlink:href="#SVGID_7_"  style="overflow:visible;"/>
					</clipPath>
					<defs>
						<filter id="Adobe_OpacityMaskFilter" filterUnits="userSpaceOnUse" x="202.91" y="532.41" width="124.76" height="71.35">
							<feColorMatrix  type="matrix" values="1 0 0 0 0  0 1 0 0 0  0 0 1 0 0  0 0 0 1 0"/>
						</filter>
					</defs>
					<mask maskUnits="userSpaceOnUse" x="202.91" y="532.41" width="124.76" height="71.35" id="SVGID_9_">
						<g class="st4">
							
								<linearGradient id="SVGID_10_" gradientUnits="userSpaceOnUse" x1="5.456968e-12" y1="1280" x2="1" y2="1280" gradientTransform="matrix(0 87.6513 87.6513 0 -111928.3359 513.7453)">
								<stop  offset="0" style="stop-color:#FFFFFF"/>
								<stop  offset="0.216" style="stop-color:#C2C2C2"/>
								<stop  offset="0.6041" style="stop-color:#5B5B5B"/>
								<stop  offset="0.8737" style="stop-color:#191919"/>
								<stop  offset="1" style="stop-color:#000000"/>
							</linearGradient>
							<rect x="202.91" y="532.41" class="st5" width="124.76" height="71.35"/>
						</g>
					</mask>
					
						<linearGradient id="SVGID_11_" gradientUnits="userSpaceOnUse" x1="5.456968e-12" y1="1280" x2="1" y2="1280" gradientTransform="matrix(0 87.6513 87.6513 0 -111928.3359 513.7453)">
						<stop  offset="0" style="stop-color:#000000"/>
						<stop  offset="1" style="stop-color:#000000"/>
					</linearGradient>
					<rect x="202.91" y="532.41" class="st6" width="124.76" height="71.35"/>
				</g>
			</g>
		</g>
		<g class="st2">
			<g>
				<defs>
					<rect id="SVGID_12_" x="327.67" y="603.65" width="121.63" height="124.76"/>
				</defs>
				<clipPath id="SVGID_13_">
					<use xlink:href="#SVGID_12_"  style="overflow:visible;"/>
				</clipPath>
				<g class="st7">
					<defs>
						<rect id="SVGID_14_" x="327.67" y="603.65" width="121.63" height="124.76"/>
					</defs>
					<clipPath id="SVGID_15_">
						<use xlink:href="#SVGID_14_"  style="overflow:visible;"/>
					</clipPath>
					<defs>
						<filter id="Adobe_OpacityMaskFilter_1_" filterUnits="userSpaceOnUse" x="327.67" y="603.65" width="121.63" height="124.76">
							<feColorMatrix  type="matrix" values="1 0 0 0 0  0 1 0 0 0  0 0 1 0 0  0 0 0 1 0"/>
						</filter>
					</defs>
					<mask maskUnits="userSpaceOnUse" x="327.67" y="603.65" width="121.63" height="124.76" id="SVGID_16_">
						<g class="st8">
							
								<linearGradient id="SVGID_17_" gradientUnits="userSpaceOnUse" x1="-4.092726e-11" y1="1280" x2="1" y2="1280" gradientTransform="matrix(149.4166 0 0 -149.4166 295.8524 191919.3281)">
								<stop  offset="0" style="stop-color:#FFFFFF"/>
								<stop  offset="0.216" style="stop-color:#C2C2C2"/>
								<stop  offset="0.6041" style="stop-color:#5B5B5B"/>
								<stop  offset="0.8737" style="stop-color:#191919"/>
								<stop  offset="1" style="stop-color:#000000"/>
							</linearGradient>
							<rect x="327.67" y="603.65" class="st9" width="121.63" height="124.76"/>
						</g>
					</mask>
					
						<linearGradient id="SVGID_18_" gradientUnits="userSpaceOnUse" x1="-4.092726e-11" y1="1280" x2="1" y2="1280" gradientTransform="matrix(149.4166 0 0 -149.4166 295.8524 191919.3281)">
						<stop  offset="0" style="stop-color:#000000"/>
						<stop  offset="1" style="stop-color:#000000"/>
					</linearGradient>
					<rect x="327.67" y="603.65" class="st10" width="121.63" height="124.76"/>
				</g>
			</g>
		</g>
		<path class="st1" d="M1066.61,833.48c6.99,16.78,10.49,28.9,10.49,36.35c0,17.72-14.44,32.64-43.34,44.74
			c-14.93,6.53-27.51,9.8-37.75,9.8c-7.93,0-14.8-2.23-20.63-6.65c-5.84-4.42-10.03-8.96-12.59-13.63
			c-2.56-4.65-5.94-11.88-10.14-21.67c-10.26-23.31-25.16-58.27-44.74-104.88l-21.68,1.4h-88.09v79c0,10.73-0.35,18.76-1.05,24.12
			c-0.7,5.36-2.91,11.53-6.64,18.52c-3.74,6.99-10.03,11.89-18.87,14.69c-8.87,2.79-20.75,4.2-35.66,4.2
			c-12.13,0-22.15-1.16-30.06-3.5c-7.94-2.32-13.98-5.13-18.18-8.4c-4.2-3.25-7.34-8.03-9.43-14.32c-2.11-6.3-3.27-11.65-3.5-16.09
			c-0.24-4.43-0.35-11.07-0.35-19.92V469.21c0-10.72,0.35-18.76,1.04-24.12c0.7-5.36,2.91-11.54,6.64-18.53
			c3.73-6.99,10.03-11.88,18.88-14.67c8.85-2.81,20.73-4.2,35.66-4.2h151.01c19.57,0,39.74,3.85,60.48,11.53
			c20.73,7.69,40.42,18.77,59.08,33.22c18.63,14.46,34.02,34.03,46.14,58.73c12.12,24.71,18.18,52.21,18.18,82.5
			c0,52.68-17.48,96.02-52.44,130.04C1029.31,748.41,1045.17,785,1066.61,833.48 M798.13,655.18h89.49
			c13.51,0,27.02-5.12,40.55-15.38c13.52-10.25,20.28-25.87,20.28-46.85c0-20.03-6.76-35.31-20.28-45.8
			c-13.52-10.48-27.51-15.73-41.95-15.73h-88.09V655.18z"/>
		<g class="st2">
			<g>
				<defs>
					<rect id="SVGID_19_" x="798.13" y="654.43" width="120.64" height="124.52"/>
				</defs>
				<clipPath id="SVGID_20_">
					<use xlink:href="#SVGID_19_"  style="overflow:visible;"/>
				</clipPath>
				<g class="st11">
					<defs>
						<rect id="SVGID_21_" x="798.13" y="654.43" width="120.64" height="124.52"/>
					</defs>
					<clipPath id="SVGID_22_">
						<use xlink:href="#SVGID_21_"  style="overflow:visible;"/>
					</clipPath>
					<defs>
						<filter id="Adobe_OpacityMaskFilter_2_" filterUnits="userSpaceOnUse" x="798.13" y="654.43" width="120.64" height="124.52">
							<feColorMatrix  type="matrix" values="1 0 0 0 0  0 1 0 0 0  0 0 1 0 0  0 0 0 1 0"/>
						</filter>
					</defs>
					<mask maskUnits="userSpaceOnUse" x="798.13" y="654.43" width="120.64" height="124.52" id="SVGID_23_">
						<g class="st12">
							
								<linearGradient id="SVGID_24_" gradientUnits="userSpaceOnUse" x1="1.637090e-11" y1="1280" x2="1" y2="1280" gradientTransform="matrix(148.2042 0 0 -148.2042 766.5761 190418.0469)">
								<stop  offset="0" style="stop-color:#FFFFFF"/>
								<stop  offset="0.216" style="stop-color:#C2C2C2"/>
								<stop  offset="0.6041" style="stop-color:#5B5B5B"/>
								<stop  offset="0.8737" style="stop-color:#191919"/>
								<stop  offset="1" style="stop-color:#000000"/>
							</linearGradient>
							<rect x="798.13" y="654.43" class="st13" width="120.64" height="124.52"/>
						</g>
					</mask>
					
						<linearGradient id="SVGID_25_" gradientUnits="userSpaceOnUse" x1="2.182787e-11" y1="1280" x2="1" y2="1280" gradientTransform="matrix(148.2042 0 0 -148.2042 766.5762 190418.0781)">
						<stop  offset="0" style="stop-color:#000000"/>
						<stop  offset="1" style="stop-color:#000000"/>
					</linearGradient>
					<rect x="798.13" y="654.43" class="st14" width="120.64" height="124.52"/>
				</g>
			</g>
		</g>
		<g class="st2">
			<g>
				<defs>
					<rect id="SVGID_26_" x="907.9" y="723.7" width="165.27" height="180.38"/>
				</defs>
				<clipPath id="SVGID_27_">
					<use xlink:href="#SVGID_26_"  style="overflow:visible;"/>
				</clipPath>
				<g class="st15">
					<defs>
						<path id="SVGID_28_" d="M1019.07,723.7c0,0-35.78,46.48-111.17,53.84l54.88,126.54l110.39-53.16L1019.07,723.7z"/>
					</defs>
					<clipPath id="SVGID_29_">
						<use xlink:href="#SVGID_28_"  style="overflow:visible;"/>
					</clipPath>
					<defs>
						<filter id="Adobe_OpacityMaskFilter_3_" filterUnits="userSpaceOnUse" x="840.95" y="662.36" width="299.16" height="303.06">
							<feColorMatrix  type="matrix" values="1 0 0 0 0  0 1 0 0 0  0 0 1 0 0  0 0 0 1 0"/>
						</filter>
					</defs>
					<mask maskUnits="userSpaceOnUse" x="840.95" y="662.36" width="299.16" height="303.06" id="SVGID_30_">
						<g class="st16">
							
								<linearGradient id="SVGID_31_" gradientUnits="userSpaceOnUse" x1="2.273737e-11" y1="1279.9977" x2="1" y2="1279.9977" gradientTransform="matrix(61.9346 139.3529 139.3529 -61.9346 -177421.5313 79998.4766)">
								<stop  offset="0" style="stop-color:#FFFFFF"/>
								<stop  offset="0.216" style="stop-color:#C2C2C2"/>
								<stop  offset="0.6041" style="stop-color:#5B5B5B"/>
								<stop  offset="0.8737" style="stop-color:#191919"/>
								<stop  offset="1" style="stop-color:#000000"/>
							</linearGradient>
							<polygon class="st17" points="1045.91,662.36 1140.12,874.33 935.16,965.42 840.95,753.45 							"/>
						</g>
					</mask>
					
						<linearGradient id="SVGID_32_" gradientUnits="userSpaceOnUse" x1="2.182787e-11" y1="1279.9977" x2="1" y2="1279.9977" gradientTransform="matrix(61.9346 139.3529 139.3529 -61.9346 -177421.5156 79998.4688)">
						<stop  offset="0" style="stop-color:#000000"/>
						<stop  offset="1" style="stop-color:#000000"/>
					</linearGradient>
					<polygon class="st18" points="1045.91,662.36 1140.12,874.33 935.16,965.42 840.95,753.45 					"/>
				</g>
			</g>
		</g>
	</g>
</g>
</svg>
